<svg width="40" height="40" viewBox="0 0 40 40" fill="none" xmlns="http://www.w3.org/2000/svg">
<circle cx="20" cy="20" r="20" fill="#34B3EB"/>
<path d="M23 10V20C23 21.1 22.1 22 21 22H10V14C10 11.79 11.79 10 14 10H23Z" stroke="white" stroke-width="1.5" stroke-linecap="round" stroke-linejoin="round"/>
<path d="M30 22V25C30 26.66 28.66 28 27 28H26C26 26.9 25.1 26 24 26C22.9 26 22 26.9 22 28H18C18 26.9 17.1 26 16 26C14.9 26 14 26.9 14 28H13C11.34 28 10 26.66 10 25V22H21C22.1 22 23 21.1 23 20V13H24.84C25.56 13 26.22 13.39 26.58 14.01L28.29 17H27C26.45 17 26 17.45 26 18V21C26 21.55 26.45 22 27 22H30Z" stroke="white" stroke-width="1.5" stroke-linecap="round" stroke-linejoin="round"/>
<path d="M16 30C17.1046 30 18 29.1046 18 28C18 26.8954 17.1046 26 16 26C14.8954 26 14 26.8954 14 28C14 29.1046 14.8954 30 16 30Z" stroke="white" stroke-width="1.5" stroke-linecap="round" stroke-linejoin="round"/>
<path d="M24 30C25.1046 30 26 29.1046 26 28C26 26.8954 25.1046 26 24 26C22.8954 26 22 26.8954 22 28C22 29.1046 22.8954 30 24 30Z" stroke="white" stroke-width="1.5" stroke-linecap="round" stroke-linejoin="round"/>
<path d="M30 20V22H27C26.45 22 26 21.55 26 21V18C26 17.45 26.45 17 27 17H28.29L30 20Z" stroke="white" stroke-width="1.5" stroke-linecap="round" stroke-linejoin="round"/>
</svg>
