<svg width="40" height="40" viewBox="0 0 40 40" fill="none" xmlns="http://www.w3.org/2000/svg">
<circle cx="20" cy="20" r="20" fill="#34B3EB"/>
<path d="M10 23.29V13.71C10 12.38 10.77 12.06 11.71 13L14.3 15.59C14.69 15.98 15.33 15.98 15.71 15.59L19.29 12C19.68 11.61 20.32 11.61 20.7 12L24.29 15.59C24.68 15.98 25.32 15.98 25.7 15.59L28.29 13C29.23 12.06 30 12.38 30 13.71V23.3C30 26.3 28 28.3 25 28.3H15C12.24 28.29 10 26.05 10 23.29Z" stroke="white" stroke-width="1.5" stroke-linecap="round" stroke-linejoin="round"/>
</svg>
