<svg width="137" height="60" viewBox="0 0 137 60" fill="none" xmlns="http://www.w3.org/2000/svg">
<path d="M0 2.90323C0 1.29982 1.29982 0 2.90323 0H71.6129C73.2164 0 74.5161 1.29982 74.5161 2.90323V57.0968C74.5161 58.7002 73.2164 60 71.6129 60H2.90323C1.29982 60 0 58.7002 0 57.0968V2.90323Z" fill="#34B3EB"/>
<path d="M5.80664 27.6224V6.10206H12.177C14.0832 6.10206 15.772 6.52576 17.2436 7.37318C18.725 8.22059 19.8707 9.42273 20.6806 10.9796C21.4904 12.5365 21.8954 14.32 21.8954 16.3302V17.4091C21.8954 19.4488 21.4855 21.2421 20.6658 22.7892C19.8559 24.3362 18.6954 25.5285 17.1843 26.366C15.6831 27.2036 13.9597 27.6224 12.014 27.6224H5.80664ZM9.55476 9.11727V24.6368H11.9992C13.9646 24.6368 15.4708 24.0258 16.5177 22.804C17.5745 21.5722 18.1127 19.8084 18.1325 17.5125V16.3154C18.1325 13.98 17.6238 12.1965 16.6065 10.9648C15.5893 9.73316 14.1128 9.11727 12.177 9.11727H9.55476Z" fill="white"/>
<path d="M42.8434 17.4239C42.8434 19.5325 42.478 21.3851 41.7472 22.9814C41.0163 24.5678 39.9694 25.7896 38.6065 26.6469C37.2534 27.4943 35.6929 27.918 33.925 27.918C32.1769 27.918 30.6164 27.4943 29.2436 26.6469C27.8806 25.7896 26.8238 24.5727 26.0732 22.9961C25.3324 21.4195 24.9571 19.6015 24.9473 17.5422V16.3302C24.9473 14.2313 25.3176 12.3788 26.0584 10.7727C26.809 9.16654 27.8608 7.93976 29.2139 7.09235C30.5769 6.23508 32.1374 5.80645 33.8954 5.80645C35.6534 5.80645 37.2089 6.23016 38.5619 7.07757C39.9249 7.91513 40.9767 9.12712 41.7176 10.7136C42.4583 12.2901 42.8336 14.1279 42.8434 16.2266V17.4239ZM39.0954 16.3005C39.0954 13.916 38.641 12.0882 37.7324 10.817C36.8337 9.5459 35.5546 8.91035 33.8954 8.91035C32.2756 8.91035 31.0065 9.5459 30.088 10.817C29.1793 12.0783 28.7152 13.8667 28.6954 16.1823V17.4239C28.6954 19.7888 29.1546 21.6165 30.0732 22.9074C31.0016 24.1983 32.2855 24.8437 33.925 24.8437C35.5842 24.8437 36.8583 24.213 37.7472 22.9517C38.6459 21.6905 39.0954 19.8479 39.0954 17.4239V16.3005Z" fill="white"/>
<path d="M51.4359 6.10206L57.658 22.5971L63.8654 6.10206H68.7098V27.6224H64.9764V20.5277L65.3469 11.0387L58.9765 27.6224H56.2951L49.9396 11.0535L50.3099 20.5277V27.6224H46.5767V6.10206H51.4359Z" fill="white"/>
<path d="M11.9992 45.5688L9.55476 48.1553V54.8657H5.80664V33.3454H9.55476V43.4404L11.6289 40.8834L17.9399 33.3454H22.4732L14.4584 42.8787L22.9325 54.8657H18.488L11.9992 45.5688Z" fill="white"/>
<path d="M41.6877 44.6672C41.6877 46.7759 41.3222 48.6284 40.5914 50.2246C39.8606 51.8111 38.8137 53.0329 37.4507 53.8902C36.0976 54.7376 34.5371 55.1613 32.7692 55.1613C31.0211 55.1613 29.4606 54.7376 28.0878 53.8902C26.7248 53.0329 25.6681 51.816 24.9175 50.2395C24.1768 48.6628 23.8015 46.8448 23.7915 44.7855V43.5735C23.7915 41.4746 24.162 39.6222 24.9027 38.016C25.6532 36.4098 26.7051 35.183 28.0582 34.3357C29.4212 33.4784 30.9816 33.0497 32.7396 33.0497C34.4976 33.0497 36.0532 33.4734 37.4063 34.3209C38.7692 35.1585 39.8211 36.3705 40.5618 37.9569C41.3025 39.5334 41.6778 41.3712 41.6877 43.47V44.6672ZM37.9396 43.5438C37.9396 41.1593 37.4852 39.3315 36.5766 38.0603C35.6779 36.7892 34.3989 36.1537 32.7396 36.1537C31.1199 36.1537 29.8507 36.7892 28.9322 38.0603C28.0236 39.3216 27.5594 41.1101 27.5397 43.4256V44.6672C27.5397 47.0321 27.999 48.8599 28.9174 50.1507C29.8458 51.4416 31.1298 52.087 32.7692 52.087C34.4285 52.087 35.7026 51.4563 36.5914 50.195C37.4902 48.9338 37.9396 47.0912 37.9396 44.6672V43.5438Z" fill="white"/>
<path d="M50.2801 33.3454L56.5023 49.8404L62.7096 33.3454H67.554V54.8657H63.8208V47.771L64.1911 38.282L57.8208 54.8657H55.1394L48.7838 38.2968L49.1542 47.771V54.8657H45.4209V33.3454H50.2801Z" fill="white"/>
<path d="M90.7124 12.8748C90.7124 10.2581 90.6505 9.05032 89.9073 8.18322C89.4582 7.64129 88.7924 7.23871 87.7705 7.23871C86.7486 7.23871 86.0828 7.64129 85.6337 8.18322C84.906 9.06581 84.8286 10.2581 84.8286 12.8748C84.8286 15.4916 84.906 16.6839 85.6337 17.5665C86.0828 18.1084 86.7486 18.511 87.7705 18.511C88.7924 18.511 89.4582 18.1084 89.9073 17.5665C90.6505 16.6994 90.7124 15.4916 90.7124 12.8748ZM88.9782 12.8748C88.9782 14.8877 88.9318 16.0026 88.6066 16.529C88.4518 16.7768 88.1886 16.9471 87.7705 16.9471C87.3524 16.9471 87.1047 16.7768 86.9499 16.529C86.6247 16.0026 86.5628 14.8877 86.5628 12.8748C86.5628 10.8619 86.6247 9.7471 86.9499 9.22064C87.1047 8.9729 87.3524 8.80258 87.7705 8.80258C88.1886 8.80258 88.4518 8.9729 88.6066 9.22064C88.9318 9.7471 88.9782 10.8619 88.9782 12.8748ZM98.6237 18.3871L95.8053 12.5652L98.3295 7.36258H96.502L94.0246 12.6426L96.7033 18.3871H98.6237ZM93.9937 18.3871V7.36258H92.2595V18.3871H93.9937ZM105.26 18.3871V7.36258H103.525V12.0077H101.373V7.36258H99.6389V18.3871H101.373V13.5716H103.525V18.3871H105.26ZM113.348 18.3871L110.669 7.36258H108.981L106.272 18.3871H108.099L108.532 16.2039H111.087L111.536 18.3871H113.348ZM110.762 14.64H108.873L109.818 10.0258L110.762 14.64ZM122.754 15.2284C122.754 14.2065 122.631 13.5406 122.12 13.0142C121.965 12.8594 121.748 12.72 121.516 12.6116C121.748 12.5187 121.934 12.3794 122.089 12.2245C122.6 11.6981 122.723 11.0942 122.723 10.3045C122.723 9.11226 122.538 8.55484 122.027 8.04387C121.578 7.57935 120.912 7.36258 119.89 7.36258H117.134V18.3871H119.874C120.912 18.3871 121.578 18.1548 122.042 17.6903C122.569 17.1484 122.754 16.529 122.754 15.2284ZM121.02 15.1045C121.02 16.3897 120.633 16.8232 119.704 16.8232H118.868V13.3858H119.704C120.633 13.3858 121.02 13.8813 121.02 15.1045ZM120.989 10.4129C120.989 11.4658 120.633 11.9148 119.735 11.9148H118.868V8.92645H119.735C120.633 8.92645 120.989 9.32903 120.989 10.4129ZM91.4711 36.7742L88.6531 30.9523L91.177 25.7497H89.3499L86.8724 31.0297L89.5512 36.7742H91.4711ZM86.8415 36.7742V25.7497H85.1073V36.7742H86.8415ZM98.7873 36.7742L96.1081 25.7497H94.4203L91.7107 36.7742H93.5378L93.9713 34.591H96.5261L96.9757 36.7742H98.7873ZM96.201 33.0271H94.312L95.2565 28.4129L96.201 33.0271ZM109.932 36.7742L107.114 30.9523L109.638 25.7497H107.811L105.333 31.0297L108.012 36.7742H109.932ZM100.858 36.7742L103.537 31.0297L101.06 25.7497H99.2324L101.756 30.9523L98.9382 36.7742H100.858ZM105.302 36.7742V25.7497H103.568V36.7742H105.302ZM117.873 38.8645V35.2103H116.96V25.7497H111.757V29.8684C111.757 32.0516 111.416 33.7548 110.843 35.2103H110.131V38.8645H111.772V36.7742H116.232V38.8645H117.873ZM115.225 35.2103H112.609C113.12 33.8323 113.414 32.2839 113.414 30.3019V27.2981H115.225V35.2103ZM124.811 33.4142C124.811 31.1071 123.975 30.0697 121.977 30.0697H120.94V25.7497H119.206V36.7742H121.977C123.975 36.7742 124.811 35.7213 124.811 33.4142ZM123.077 33.4142C123.077 34.529 122.844 35.2103 121.915 35.2103H120.94V31.6335H121.915C122.844 31.6335 123.077 32.2994 123.077 33.4142ZM127.49 36.7742V25.7497H125.755V36.7742H127.49ZM130.87 36.7742L133.347 30.0232V36.7742H135.081V25.7497H133.533L131.071 32.5006V25.7497H129.337V36.7742H130.87ZM134.183 23.2568H133.022C132.991 23.7832 132.635 23.969 132.201 23.969C131.768 23.969 131.412 23.7832 131.381 23.2568H130.22C130.266 24.6194 131.18 25.0529 132.201 25.0529C133.223 25.0529 134.137 24.6194 134.183 23.2568ZM92.137 57.2516V53.5974H91.2234V44.1368H86.0208V48.2555C86.0208 50.4387 85.6802 52.1419 85.1073 53.5974H84.395V57.2516H86.0363V55.1613H90.4957V57.2516H92.137ZM89.4892 53.5974H86.8724C87.3834 52.2194 87.6776 50.671 87.6776 48.689V45.6852H89.4892V53.5974ZM98.8328 49.649C98.8328 47.0323 98.7708 45.8245 98.0276 44.9574C97.5786 44.4155 96.9128 44.0129 95.8904 44.0129C94.8685 44.0129 94.2027 44.4155 93.7537 44.9574C93.0259 45.84 92.9485 47.0323 92.9485 49.649C92.9485 52.2658 93.0259 53.4581 93.7537 54.3406C94.2027 54.8826 94.8685 55.2852 95.8904 55.2852C96.9128 55.2852 97.5786 54.8826 98.0276 54.3406C98.7708 53.4735 98.8328 52.2658 98.8328 49.649ZM97.0986 49.649C97.0986 51.6619 97.0521 52.7768 96.7266 53.3032C96.5717 53.551 96.3085 53.7213 95.8904 53.7213C95.4724 53.7213 95.2246 53.551 95.0698 53.3032C94.7446 52.7768 94.6827 51.6619 94.6827 49.649C94.6827 47.6361 94.7446 46.5213 95.0698 45.9948C95.2246 45.7471 95.4724 45.5768 95.8904 45.5768C96.3085 45.5768 96.5717 45.7471 96.7266 45.9948C97.0521 46.5213 97.0986 47.6361 97.0986 49.649ZM107.796 55.1613V44.1368H106.217L104.095 49.9277L101.959 44.1368H100.395V55.1613H102.129V48.3639L103.6 52.8077H104.56L106.062 48.2865V55.1613H107.796Z" fill="#34B3EB"/>
</svg>
