<svg width="27" height="26" viewBox="0 0 27 26" fill="none" xmlns="http://www.w3.org/2000/svg">
<path fill-rule="evenodd" clip-rule="evenodd" d="M2.32766 1.82766C0.5 3.6553 0.5 6.59685 0.5 12.48V13.52C0.5 19.4031 0.5 22.3447 2.32766 24.1723C4.1553 26 7.09685 26 12.98 26H14.02C19.9031 26 22.8447 26 24.6723 24.1723C26.5 22.3447 26.5 19.4031 26.5 13.52V12.48C26.5 6.59685 26.5 3.6553 24.6723 1.82766C22.8447 0 19.9031 0 14.02 0H12.98C7.09685 0 4.1553 0 2.32766 1.82766Z" fill="#34B3EB"/>
<path fill-rule="evenodd" clip-rule="evenodd" d="M17.5 8.99999C17.5 11.2036 15.7089 13 13.5119 13C11.2911 13 9.5 11.2036 9.5 8.99999C9.5 6.79641 11.2911 5 13.5119 5C15.7089 5 17.5 6.79641 17.5 8.99999ZM15.1597 8.99999C15.1597 8.08981 14.4194 7.3473 13.5119 7.3473C12.5806 7.3473 11.8403 8.08981 11.8641 8.99999C11.8641 9.91017 12.6045 10.6527 13.5119 10.6527C14.4194 10.6527 15.1597 9.91017 15.1597 8.99999Z" fill="white"/>
<path d="M17.8892 15.3758C17.0902 15.8722 16.2111 16.212 15.3054 16.4209L17.836 18.8249C18.3422 19.3213 18.3422 20.1312 17.836 20.6277C17.3299 21.1241 16.5042 21.1241 15.998 20.6277L13.5473 18.2239L11.0967 20.6277C10.8303 20.8629 10.5107 20.9935 10.1644 20.9935C9.81807 20.9935 9.4984 20.8891 9.23207 20.6277C8.7259 20.1312 8.7259 19.3213 9.23207 18.8249L11.7093 16.3948C10.8037 16.1858 9.92465 15.8461 9.12548 15.3497C8.51282 14.9839 8.3264 14.2 8.67265 13.5991C9.07223 12.9981 9.87132 12.8413 10.484 13.2071C12.2954 14.3306 14.6662 14.3306 16.4775 13.2071C17.0902 12.8151 17.9159 12.9981 18.2888 13.5991C18.6884 14.2 18.502 15.01 17.8892 15.3758Z" fill="white"/>
</svg>
