<svg width="27" height="26" viewBox="0 0 27 26" fill="none" xmlns="http://www.w3.org/2000/svg">
<path fill-rule="evenodd" clip-rule="evenodd" d="M2.32766 1.82766C0.5 3.6553 0.5 6.59685 0.5 12.48V13.52C0.5 19.4031 0.5 22.3447 2.32766 24.1723C4.1553 26 7.09685 26 12.98 26H14.02C19.9031 26 22.8447 26 24.6723 24.1723C26.5 22.3447 26.5 19.4031 26.5 13.52V12.48C26.5 6.59685 26.5 3.6553 24.6723 1.82766C22.8447 0 19.9031 0 14.02 0H12.98C7.09685 0 4.1553 0 2.32766 1.82766Z" fill="#34B3EB"/>
<path d="M6.5 19V6.65V6H16.2391C20.413 6 21.8043 7.3 21.8043 10.55C21.8043 13.15 19.9493 14.45 19.0217 14.45L22.5 19H18.3261L15.4412 14.45H9.97826V19H6.5Z" fill="white"/>
<path d="M9.5 12V9H17C17.5 9 18.5 9.3 18.5 10.5C18.5 11.7 17.5 12 17 12H9.5Z" fill="#34B3EB"/>
</svg>
