<svg width="34" height="34" viewBox="0 0 34 34" fill="none" xmlns="http://www.w3.org/2000/svg">
<path fill-rule="evenodd" clip-rule="evenodd" d="M2.39001 2.39001C0 4.78001 0 8.62665 0 16.32V17.68C0 25.3734 0 29.2199 2.39001 31.61C4.78001 34 8.62665 34 16.32 34H17.68C25.3734 34 29.2199 34 31.61 31.61C34 29.2199 34 25.3734 34 17.68V16.32C34 8.62665 34 4.78001 31.61 2.39001C29.2199 0 25.3734 0 17.68 0H16.32C8.62665 0 4.78001 0 2.39001 2.39001Z" fill="#34B3EB"/>
<path fill-rule="evenodd" clip-rule="evenodd" d="M7.79663 15.3463C12.7114 13.3164 15.9886 11.9781 17.628 11.3314C22.3094 9.48528 23.2825 9.16458 23.9168 9.15398C24.056 9.15166 24.3681 9.18443 24.5695 9.33981C24.7407 9.47101 24.7874 9.64825 24.8093 9.77265C24.8322 9.89704 24.8597 10.1804 24.8377 10.4018C24.5842 12.9291 23.4866 19.0622 22.9282 21.8927C22.6911 23.0904 22.2261 23.492 21.7757 23.5314C20.7971 23.6167 20.0529 22.918 19.1055 22.3286C17.6216 21.4066 16.7831 20.8326 15.3432 19.9328C13.679 18.8928 14.7573 18.3213 15.7057 17.3873C15.9547 17.1428 20.268 13.4231 20.3513 13.0857C20.3614 13.0435 20.3715 12.8862 20.2726 12.8031C20.1747 12.72 20.0291 12.7484 19.9239 12.771C19.7746 12.8031 17.4047 14.2884 12.813 17.227C12.1402 17.6651 11.5306 17.8785 10.985 17.8673C10.3826 17.8549 9.22465 17.5446 8.36418 17.2793C7.30872 16.954 6.46931 16.7819 6.54254 16.2294C6.58007 15.9415 6.9984 15.6472 7.79663 15.3463Z" fill="white"/>
</svg>
