<svg width="27" height="26" viewBox="0 0 27 26" fill="none" xmlns="http://www.w3.org/2000/svg">
<path fill-rule="evenodd" clip-rule="evenodd" d="M2.32766 1.82766C0.5 3.6553 0.5 6.59685 0.5 12.48V13.52C0.5 19.4031 0.5 22.3447 2.32766 24.1723C4.1553 26 7.09685 26 12.98 26H14.02C19.9031 26 22.8447 26 24.6723 24.1723C26.5 22.3447 26.5 19.4031 26.5 13.52V12.48C26.5 6.59685 26.5 3.6553 24.6723 1.82766C22.8447 0 19.9031 0 14.02 0H12.98C7.09685 0 4.1553 0 2.32766 1.82766Z" fill="#34B3EB"/>
<path d="M9.21534 7.35141C9.02948 7.3242 8.83991 7.36162 8.67834 7.45741H8.66434C8.28934 7.67741 7.95134 7.95441 7.66334 8.28041C7.42334 8.55741 7.29334 8.83741 7.25934 9.10741C7.23934 9.26741 7.25334 9.42941 7.30034 9.58241L7.31834 9.59241C7.58834 10.3854 7.94034 11.1484 8.37034 11.8664C8.92503 12.8747 9.60731 13.8074 10.4003 14.6414L10.4243 14.6754L10.4623 14.7034L10.4853 14.7304L10.5133 14.7544C11.3503 15.5497 12.2852 16.2353 13.2953 16.7944C14.4503 17.4234 15.1513 17.7204 15.5723 17.8444V17.8504C15.6953 17.8884 15.8073 17.9054 15.9203 17.9054C16.2791 17.8797 16.6187 17.7338 16.8843 17.4914C17.2093 17.2034 17.4843 16.8644 17.6983 16.4874V16.4804C17.8993 16.1004 17.8313 15.7424 17.5413 15.4994C16.9593 14.9898 16.3294 14.5377 15.6603 14.1494C15.2123 13.9064 14.7573 14.0534 14.5733 14.2994L14.1803 14.7954C13.9783 15.0414 13.6123 15.0074 13.6123 15.0074L13.6023 15.0134C10.8713 14.3164 10.1423 11.5514 10.1423 11.5514C10.1423 11.5514 10.1083 11.1754 10.3613 10.9834L10.8533 10.5874C11.0893 10.3954 11.2533 9.94141 11.0003 9.49341C10.6129 8.82484 10.1618 8.19525 9.65334 7.61341C9.54211 7.47679 9.38634 7.38368 9.21334 7.35041M13.8303 6.14941C13.6977 6.14941 13.5706 6.20209 13.4768 6.29586C13.383 6.38963 13.3303 6.51681 13.3303 6.64941C13.3303 6.78202 13.383 6.9092 13.4768 7.00297C13.5706 7.09674 13.6977 7.14941 13.8303 7.14941C15.0943 7.14941 16.1443 7.56241 16.9753 8.35441C17.4023 8.78741 17.7353 9.30041 17.9533 9.86241C18.1723 10.4254 18.2723 11.0264 18.2463 11.6284C18.2408 11.761 18.2881 11.8904 18.3779 11.9881C18.4678 12.0858 18.5927 12.1438 18.7253 12.1494C18.8579 12.155 18.9873 12.1076 19.085 12.0178C19.1827 11.928 19.2408 11.803 19.2463 11.6704C19.2762 10.93 19.1533 10.1913 18.8853 9.50041C18.6161 8.806 18.2062 8.17477 17.6813 7.64641L17.6713 7.63641C16.6403 6.65141 15.3363 6.14941 13.8303 6.14941Z" fill="white"/>
<path d="M13.7954 7.79348C13.6628 7.79348 13.5356 7.84616 13.4419 7.93993C13.3481 8.0337 13.2954 8.16087 13.2954 8.29348C13.2954 8.42609 13.3481 8.55327 13.4419 8.64703C13.5356 8.7408 13.6628 8.79348 13.7954 8.79348H13.8124C14.7244 8.85848 15.3884 9.16248 15.8534 9.66148C16.3304 10.1755 16.5774 10.8145 16.5584 11.6045C16.5554 11.7371 16.6051 11.8655 16.6967 11.9614C16.7883 12.0573 16.9143 12.1129 17.0469 12.116C17.1795 12.119 17.3079 12.0693 17.4038 11.9777C17.4998 11.8861 17.5554 11.7601 17.5584 11.6275C17.5824 10.5905 17.2484 9.69548 16.5864 8.98148V8.97948C15.9094 8.25348 14.9804 7.86948 13.8624 7.79448L13.8454 7.79248L13.7954 7.79348Z" fill="white"/>
<path d="M13.7764 9.46849C13.7095 9.46258 13.642 9.47022 13.5781 9.49095C13.5142 9.51168 13.4552 9.54507 13.4045 9.58913C13.3538 9.63318 13.3125 9.68701 13.283 9.74739C13.2536 9.80776 13.2366 9.87345 13.2331 9.94054C13.2296 10.0076 13.2397 10.0747 13.2627 10.1378C13.2857 10.2009 13.3212 10.2588 13.367 10.3079C13.4129 10.3569 13.4682 10.3963 13.5295 10.4235C13.5909 10.4508 13.6572 10.4654 13.7244 10.4665C14.1424 10.4885 14.4094 10.6145 14.5774 10.7835C14.7464 10.9535 14.8724 11.2265 14.8954 11.6535C14.8966 11.7206 14.9114 11.7867 14.9387 11.848C14.9661 11.9093 15.0055 11.9645 15.0546 12.0102C15.1037 12.0559 15.1616 12.0913 15.2247 12.1142C15.2877 12.1371 15.3548 12.147 15.4218 12.1435C15.4888 12.1399 15.5544 12.1229 15.6147 12.0935C15.675 12.064 15.7288 12.0227 15.7728 11.972C15.8168 11.9214 15.8502 11.8624 15.8709 11.7985C15.8916 11.7347 15.8992 11.6673 15.8934 11.6005C15.8614 11.0005 15.6734 10.4705 15.2884 10.0805C14.9014 9.69049 14.3744 9.50049 13.7764 9.46849Z" fill="white"/>
<path fill-rule="evenodd" clip-rule="evenodd" d="M8.31735 3.53347C11.4994 2.82218 14.7993 2.82218 17.9813 3.53347L18.3203 3.60847C19.2503 3.81695 20.1044 4.27891 20.7878 4.94312C21.4713 5.60733 21.9574 6.44785 22.1923 7.37147C23.0008 10.5543 23.0008 13.8887 22.1923 17.0715C21.9574 17.9951 21.4713 18.8356 20.7878 19.4998C20.1044 20.164 19.2503 20.626 18.3203 20.8345L17.9803 20.9095C15.9873 21.3545 13.9423 21.5224 11.9033 21.4085L9.25035 23.7825C9.15033 23.872 9.02811 23.9331 8.89644 23.9593C8.76477 23.9855 8.62848 23.9759 8.5018 23.9314C8.37511 23.887 8.26268 23.8094 8.17624 23.7066C8.08979 23.6039 8.0325 23.4799 8.01035 23.3475L7.57135 20.7255C6.72976 20.4631 5.96942 19.9895 5.36285 19.3499C4.75627 18.7102 4.32369 17.9258 4.10635 17.0715C3.29788 13.8887 3.29788 10.5543 4.10635 7.37147C4.34129 6.44785 4.82744 5.60733 5.51089 4.94312C6.19434 4.27891 7.04839 3.81695 7.97835 3.60847L8.31735 3.53347ZM17.6543 4.99647C14.6876 4.33328 11.6111 4.33328 8.64435 4.99647L8.30435 5.07247C7.64531 5.22066 7.04013 5.54833 6.55583 6.01923C6.07152 6.49012 5.72698 7.08585 5.56035 7.74047C4.81334 10.6811 4.81334 13.7618 5.56035 16.7025C5.72706 17.3572 6.07175 17.953 6.55625 18.4239C7.04074 18.8948 7.64613 19.2225 8.30535 19.3705L8.39535 19.3905C8.54094 19.423 8.67352 19.4983 8.77612 19.6066C8.87873 19.7149 8.9467 19.8513 8.97135 19.9985L9.26535 21.7565L11.1373 20.0815C11.2121 20.0144 11.2996 19.963 11.3946 19.9304C11.4896 19.8977 11.5901 19.8845 11.6903 19.8915C13.6894 20.0326 15.6984 19.8827 17.6543 19.4465L17.9933 19.3705C18.6526 19.2225 19.258 18.8948 19.7425 18.4239C20.2269 17.953 20.5716 17.3572 20.7383 16.7025C21.4844 13.7625 21.4844 10.6815 20.7383 7.74047C20.5716 7.08573 20.2269 6.4899 19.7425 6.019C19.258 5.5481 18.6526 5.22049 17.9933 5.07247L17.6543 4.99647Z" fill="white"/>
</svg>
