<svg width="34" height="34" viewBox="0 0 34 34" fill="none" xmlns="http://www.w3.org/2000/svg">
<path fill-rule="evenodd" clip-rule="evenodd" d="M2.39001 2.39001C0 4.78001 0 8.62665 0 16.32V17.68C0 25.3734 0 29.2199 2.39001 31.61C4.78001 34 8.62665 34 16.32 34H17.68C25.3734 34 29.2199 34 31.61 31.61C34 29.2199 34 25.3734 34 17.68V16.32C34 8.62665 34 4.78001 31.61 2.39001C29.2199 0 25.3734 0 17.68 0H16.32C8.62665 0 4.78001 0 2.39001 2.39001Z" fill="#34B3EB"/>
<path fill-rule="evenodd" clip-rule="evenodd" d="M6.53809 10.4615C6.69736 18.6297 10.5199 23.5385 17.2217 23.5385H17.6016V18.8654C20.0642 19.127 21.9264 21.0513 22.6737 23.5385H26.1535C25.1978 19.8209 22.6861 17.7658 21.1178 16.9804C22.6861 16.0117 24.8913 13.6555 25.4182 10.4615H22.2571C21.5711 13.0534 19.5374 15.4096 17.6016 15.6321V10.4615H14.4405V19.5197C12.4802 18.9962 10.0054 16.4568 9.89511 10.4615H6.53809Z" fill="white"/>
</svg>
