<svg width="34" height="34" viewBox="0 0 34 34" fill="none" xmlns="http://www.w3.org/2000/svg">
<path fill-rule="evenodd" clip-rule="evenodd" d="M2.39001 2.39001C0 4.78001 0 8.62665 0 16.32V17.68C0 25.3734 0 29.2199 2.39001 31.61C4.78001 34 8.62665 34 16.32 34H17.68C25.3734 34 29.2199 34 31.61 31.61C34 29.2199 34 25.3734 34 17.68V16.32C34 8.62665 34 4.78001 31.61 2.39001C29.2199 0 25.3734 0 17.68 0H16.32C8.62665 0 4.78001 0 2.39001 2.39001Z" fill="#34B3EB"/>
<path d="M11.3966 9.61341C11.1535 9.57782 10.9056 9.62675 10.6943 9.75203H10.676C10.1856 10.0397 9.74364 10.4019 9.36703 10.8283C9.05318 11.1905 8.88318 11.5566 8.83872 11.9097C8.81257 12.1189 8.83087 12.3308 8.89234 12.5309L8.91587 12.5439C9.26895 13.5809 9.72926 14.5787 10.2916 15.5176C11.0169 16.8362 11.9092 18.0559 12.9462 19.1465L12.9776 19.1909L13.0273 19.2276L13.0573 19.2629L13.094 19.2943C14.1885 20.3343 15.411 21.2308 16.732 21.962C18.2423 22.7845 19.159 23.1729 19.7096 23.335V23.3429C19.8704 23.3926 20.0169 23.4148 20.1646 23.4148C20.6338 23.3811 21.0778 23.1904 21.4253 22.8734C21.8503 22.4968 22.2099 22.0535 22.4897 21.5605V21.5513C22.7526 21.0544 22.6636 20.5863 22.2844 20.2685C21.5233 19.6021 20.6996 19.0109 19.8246 18.5031C19.2388 18.1853 18.6438 18.3776 18.4032 18.6993L17.8893 19.3479C17.6251 19.6696 17.1465 19.6251 17.1465 19.6251L17.1334 19.6329C13.5621 18.7215 12.6088 15.1057 12.6088 15.1057C12.6088 15.1057 12.5643 14.614 12.8952 14.3629L13.5386 13.8451C13.8472 13.594 14.0616 13.0003 13.7308 12.4145C13.2242 11.5402 12.6343 10.7169 11.9693 9.95603C11.8239 9.77737 11.6202 9.65561 11.394 9.6121M17.4316 8.04156C17.2582 8.04156 17.0918 8.11045 16.9692 8.23307C16.8466 8.35569 16.7777 8.522 16.7777 8.69541C16.7777 8.86882 16.8466 9.03513 16.9692 9.15775C17.0918 9.28037 17.2582 9.34926 17.4316 9.34926C19.0845 9.34926 20.4576 9.88933 21.5443 10.925C22.1026 11.4913 22.5381 12.1621 22.8232 12.897C23.1096 13.6333 23.2403 14.4192 23.2063 15.2064C23.1991 15.3798 23.261 15.549 23.3784 15.6768C23.4959 15.8046 23.6593 15.8804 23.8327 15.8877C24.0061 15.895 24.1753 15.8331 24.3031 15.7156C24.4309 15.5982 24.5067 15.4347 24.514 15.2613C24.553 14.2931 24.3924 13.3271 24.042 12.4236C23.6899 11.5156 23.1539 10.6901 22.4675 9.99918L22.4544 9.9861C21.1062 8.69803 19.401 8.04156 17.4316 8.04156Z" fill="white"/>
<path d="M17.3863 10.1915C17.2129 10.1915 17.0465 10.2604 16.9239 10.383C16.8013 10.5056 16.7324 10.6719 16.7324 10.8453C16.7324 11.0188 16.8013 11.1851 16.9239 11.3077C17.0465 11.4303 17.2129 11.4992 17.3863 11.4992H17.4085C18.6011 11.5842 19.4694 11.9817 20.0775 12.6343C20.7013 13.3064 21.0243 14.142 20.9994 15.1751C20.9954 15.3485 21.0605 15.5164 21.1803 15.6419C21.3001 15.7673 21.4648 15.84 21.6382 15.844C21.8116 15.848 21.9795 15.7829 22.105 15.6631C22.2304 15.5433 22.3031 15.3786 22.3071 15.2052C22.3385 13.8491 21.9017 12.6787 21.036 11.745V11.7424C20.1507 10.793 18.9359 10.2909 17.4739 10.1928L17.4517 10.1902L17.3863 10.1915Z" fill="white"/>
<path d="M17.3617 12.3819C17.2742 12.3741 17.186 12.3841 17.1025 12.4112C17.0189 12.4383 16.9417 12.482 16.8754 12.5396C16.8091 12.5972 16.7551 12.6676 16.7166 12.7466C16.678 12.8255 16.6558 12.9114 16.6513 12.9992C16.6467 13.0869 16.6599 13.1746 16.6899 13.2572C16.72 13.3397 16.7665 13.4153 16.8264 13.4795C16.8864 13.5437 16.9587 13.5951 17.0389 13.6308C17.1192 13.6664 17.2059 13.6855 17.2937 13.6869C17.8403 13.7157 18.1895 13.8805 18.4092 14.1015C18.6302 14.3238 18.7949 14.6808 18.825 15.2392C18.8266 15.3269 18.8459 15.4134 18.8817 15.4936C18.9175 15.5737 18.969 15.6458 19.0333 15.7056C19.0975 15.7654 19.1731 15.8117 19.2556 15.8416C19.3381 15.8716 19.4258 15.8846 19.5134 15.8799C19.6011 15.8753 19.6869 15.853 19.7657 15.8145C19.8446 15.776 19.9149 15.722 19.9724 15.6557C20.03 15.5895 20.0736 15.5123 20.1007 15.4288C20.1278 15.3454 20.1378 15.2573 20.1301 15.1699C20.0882 14.3852 19.8424 13.6922 19.3389 13.1822C18.8329 12.6722 18.1437 12.4237 17.3617 12.3819Z" fill="white"/>
<path fill-rule="evenodd" clip-rule="evenodd" d="M10.2225 4.62071C14.3836 3.69056 18.6988 3.69056 22.86 4.62071L23.3033 4.71879C24.5194 4.99142 25.6362 5.59551 26.53 6.4641C27.4237 7.33268 28.0595 8.43182 28.3667 9.63964C29.4239 13.8018 29.4239 18.1621 28.3667 22.3243C28.0595 23.5321 27.4237 24.6312 26.53 25.4998C25.6362 26.3684 24.5194 26.9725 23.3033 27.2451L22.8587 27.3432C20.2524 27.9252 17.5782 28.1447 14.9118 27.9957L11.4425 31.1002C11.3117 31.2173 11.1519 31.2971 10.9797 31.3314C10.8075 31.3657 10.6293 31.3531 10.4637 31.295C10.298 31.2368 10.151 31.1353 10.0379 31.001C9.92489 30.8667 9.84997 30.7045 9.821 30.5313L9.24692 27.1026C8.14639 26.7595 7.1521 26.1402 6.35888 25.3037C5.56567 24.4672 4.99998 23.4414 4.71577 22.3243C3.65855 18.1621 3.65855 13.8018 4.71577 9.63964C5.023 8.43182 5.65873 7.33268 6.55248 6.4641C7.44622 5.59551 8.56306 4.99142 9.77915 4.71879L10.2225 4.62071ZM22.4324 6.53387C18.5528 5.66661 14.5296 5.66661 10.6501 6.53387L10.2055 6.63325C9.34364 6.82703 8.55226 7.25553 7.91893 7.87131C7.28561 8.4871 6.83506 9.26614 6.61715 10.1222C5.6403 13.9676 5.6403 17.9963 6.61715 21.8417C6.83516 22.6979 7.28591 23.4771 7.91948 24.0929C8.55305 24.7087 9.34471 25.1371 10.2068 25.3306L10.3245 25.3568C10.5149 25.3994 10.6882 25.4978 10.8224 25.6394C10.9566 25.781 11.0455 25.9595 11.0777 26.1519L11.4622 28.4508L13.9102 26.2604C14.0079 26.1727 14.1223 26.1055 14.2465 26.0628C14.3707 26.0201 14.5023 26.0028 14.6333 26.0119C17.2475 26.1965 19.8746 26.0005 22.4324 25.43L22.8757 25.3306C23.7378 25.1371 24.5294 24.7087 25.163 24.0929C25.7966 23.4771 26.2473 22.6979 26.4653 21.8417C27.4408 17.9971 27.4408 13.9681 26.4653 10.1222C26.2473 9.26597 25.7966 8.48682 25.163 7.87102C24.5294 7.25522 23.7378 6.82681 22.8757 6.63325L22.4324 6.53387Z" fill="white"/>
</svg>
